<svg width="80" height="80" viewBox="0 0 80 80" fill="none" xmlns="http://www.w3.org/2000/svg">
<g clip-path="url(#clip0_607_1704)">
<rect x="4" y="4" width="72" height="72" rx="36" fill="#54DC95"/>
<mask id="mask0_607_1704" style="mask-type:alpha" maskUnits="userSpaceOnUse" x="4" y="4" width="72" height="72">
<g clip-path="url(#clip1_607_1704)">
<g clip-path="url(#clip2_607_1704)">
<g clip-path="url(#clip3_607_1704)">
<rect opacity="0.7" x="-0.537242" y="0.459751" width="14.0799" height="6.22754" rx="3.11377" transform="matrix(-0.996993 -0.0774917 -0.0774917 0.996993 47.0331 38.5535)" fill="#FF4646" stroke="white"/>
<path d="M37.9551 60.2258L48.4564 60.5662C50.3808 60.6268 51.938 62.1051 52.0155 63.9292L52.3885 72.3043C52.4551 73.8111 51.4859 75.1741 49.9826 75.6688L49.0166 75.984C47.6961 76.4161 46.2125 76.0792 45.2247 75.1186L44.4218 74.34C43.8038 73.7434 42.9761 73.3781 42.1128 73.3024L39.2284 73.0694C38.6661 73.021 38.1131 73.1064 37.594 73.299C35.6462 74.0287 33.4318 73.0366 32.7669 71.1296L32.5217 70.4292C31.5118 67.5515 32.2054 64.394 34.3463 62.1885L35.1971 61.3157C35.902 60.5927 36.902 60.1913 37.9551 60.2258Z" fill="white"/>
<path d="M38.2922 43.5707L47.9521 43.8898C49.7144 43.9451 51.1483 45.3021 51.2279 46.984L51.5741 54.6932C51.6382 56.0876 50.7376 57.3394 49.3644 57.7835L48.4741 58.07C47.2609 58.4681 45.8949 58.1601 44.987 57.2732L44.2457 56.5552C43.6711 56.0062 42.9213 55.6634 42.1175 55.5972L39.4646 55.3805C38.9519 55.34 38.4319 55.4102 37.9557 55.5893C36.1694 56.2631 34.1259 55.349 33.5184 53.5936L33.295 52.9475C32.3614 50.2957 33.0042 47.3948 34.9746 45.3659L35.7532 44.563C36.399 43.8917 37.3217 43.5289 38.2838 43.5592L38.2922 43.5707Z" fill="white"/>
<path d="M38.8451 27.6171L48.4965 27.2835C50.2562 27.2264 51.7885 28.4768 51.992 30.1478L52.9147 37.816C53.0828 39.1964 52.2835 40.5151 50.9457 41.0564L50.0858 41.4087C48.9013 41.8827 47.531 41.6656 46.5509 40.8487L45.7605 40.184C45.1498 39.6699 44.3707 39.3837 43.5674 39.3785L40.9161 39.3453C40.3986 39.3346 39.8921 39.4477 39.4311 39.6597C37.697 40.4537 35.6016 39.6739 34.8541 37.9676L34.5779 37.3335C33.4499 34.7526 33.8758 31.8072 35.6831 29.6507L36.3986 28.797C36.9895 28.0865 37.8918 27.6595 38.8535 27.6286L38.8451 27.6171Z" fill="white"/>
<path d="M41.9848 13.9662L49.9194 14.1239C51.3708 14.1503 52.5614 15.2448 52.6484 16.6225L53.0215 22.9415C53.0852 24.0814 52.3712 25.1185 51.2421 25.4994L50.5202 25.7515C49.5296 26.0933 48.4071 25.8544 47.646 25.1333L47.0249 24.5565C46.5552 24.1157 45.9266 23.843 45.2718 23.8004L43.0972 23.6493C42.6738 23.6229 42.2562 23.6891 41.8657 23.8409C40.4109 24.4146 38.7257 23.6794 38.1986 22.2523L38.0076 21.7233C37.2101 19.5612 37.7016 17.1657 39.2913 15.4836L39.9157 14.8191C40.4418 14.2612 41.193 13.9527 41.9848 13.9662Z" fill="white"/>
<path d="M44.9265 0.335978L52.8416 0.938504C54.2903 1.04587 55.4087 2.21038 55.4048 3.58389L55.3895 9.91257C55.3821 11.0514 54.6034 12.0477 53.454 12.3643L52.7185 12.5735C51.7076 12.8511 50.6044 12.5541 49.8893 11.7996L49.3142 11.1894C48.8691 10.7219 48.2667 10.4127 47.6082 10.3287L45.4425 10.0569C45.0239 10.0008 44.5995 10.0455 44.2022 10.1759C42.7103 10.6623 41.0691 9.84244 40.6392 8.37986L40.4796 7.84563C39.8206 5.64444 40.4579 3.29235 42.1557 1.69864L42.825 1.07182C43.3861 0.549989 44.1509 0.284358 44.9463 0.339125L44.9265 0.335978Z" fill="white"/>
</g>
<path d="M29.0547 32.3359L25.2115 29.9492L25.0048 32.1877L21.1616 29.801" stroke="white" stroke-width="2"/>
<path d="M27.0391 38.9609L22.6056 38.0607L23.1907 40.2312L18.7572 39.3309" stroke="white" stroke-width="2"/>
<path d="M27.4609 46.5234L22.972 47.0856L24.2194 48.9558L19.7305 49.518" stroke="white" stroke-width="2"/>
</g>
</g>
</mask>
<g mask="url(#mask0_607_1704)">
<rect x="-5" y="-4.5" width="88" height="93" fill="white"/>
</g>
</g>
<rect x="2" y="2" width="76" height="76" rx="38" stroke="#B6FFD9" stroke-width="4"/>
<defs>
<clipPath id="clip0_607_1704">
<rect x="4" y="4" width="72" height="72" rx="36" fill="white"/>
</clipPath>
<clipPath id="clip1_607_1704">
<rect x="4" y="4" width="72" height="72" rx="36" fill="white"/>
</clipPath>
<clipPath id="clip2_607_1704">
<rect width="67.5" height="67.5" rx="33.75" transform="matrix(-0.996515 -0.0834134 -0.0834134 0.996515 76.4492 9.17969)" fill="white"/>
</clipPath>
<clipPath id="clip3_607_1704">
<rect width="24.3188" height="100.341" fill="white" transform="translate(43.4336 -26.0781) rotate(9.00229)"/>
</clipPath>
</defs>
</svg>
